# xmcd CD database file
#
# Track frame offsets:
#	150
#	22475
#	41740
#
# Disc length: 851 seconds
#
# Revision: 0
# Processed by: cddbd v1.5.1PL0 Copyright (c) Steve Scherf et al.
# Submitted via: CDex 1.51
#
DISCID=26035103
DTITLE=Maria - I Believe
DYEAR=2004
DGENRE=J-Pop
TTITLE0=I Believe
TTITLE1=抱きしめて…〜理不尽な結末〜
TTITLE2=I Believe(Instrumental)
EXTD=YEAR: 2004
EXTT0=
EXTT1=
EXTT2=
PLAYORDER=
